<?xml version="1.0" encoding="UTF-8" standalone="no"?><!DOCTYPE svg PUBLIC "-//W3C//DTD SVG 1.1//EN" "http://www.w3.org/Graphics/SVG/1.1/DTD/svg11.dtd"><svg width="100%" height="100%" viewBox="0 0 5066 1487" version="1.1" xmlns="http://www.w3.org/2000/svg" xmlns:xlink="http://www.w3.org/1999/xlink" xml:space="preserve" xmlns:serif="http://www.serif.com/" style="fill-rule:evenodd;clip-rule:evenodd;stroke-linejoin:round;stroke-miterlimit:2;"><rect id="FINAL-CURVES" serif:id="FINAL CURVES" x="0" y="0" width="5065.86" height="1486.65" style="fill:none;"/><g><g><path d="M2358.72,728.072l0,-1.655c0,-77.773 -41.369,-116.66 -108.387,-142.309c41.369,-23.167 76.119,-59.571 76.119,-124.935l0,-1.654c0,-91.012 -72.809,-149.756 -191.125,-149.756l-268.898,-0l-0,579.166l275.517,0c130.727,0 216.774,-52.952 216.774,-158.857Zm-158.857,-247.387c0,43.024 -35.577,61.227 -91.839,61.227l-117.488,-0l-0,-122.453l125.762,0c53.779,0 83.565,21.512 83.565,59.572l0,1.654Zm32.268,231.667c-0,43.024 -33.923,62.881 -90.185,62.881l-151.41,-0l-0,-127.417l147.274,0c65.363,0 94.321,23.994 94.321,62.881l-0,1.655Z" style="fill:#fff;fill-rule:nonzero;"/><path d="M2691.33,566.733l-0,-131.554c-74.464,-3.309 -115.833,36.405 -141.482,97.631l-0,-89.357l-125.762,0l0,443.476l125.762,0l-0,-163.821c-0,-105.905 51.297,-156.375 134.863,-156.375l6.619,-0Z" style="fill:#fff;fill-rule:nonzero;"/><path d="M2878.32,394.638l-0,-87.697l-132.381,0l0,87.697l132.381,-0Zm-3.31,492.291l0,-443.476l-125.761,0l-0,443.476l125.761,0Z" style="fill:#fff;fill-rule:nonzero;"/><path d="M3380.54,677.602l-0,-1.655c-0,-125.762 -67.845,-240.768 -215.947,-240.768c-129.071,0 -219.255,104.25 -219.255,230.84l-0,1.654c-0,135.691 98.458,229.185 231.666,229.185c80.256,-0 139.827,-31.441 181.196,-82.738l-71.982,-63.709c-34.75,32.268 -65.363,45.506 -107.559,45.506c-56.262,0 -95.976,-29.785 -108.387,-86.875l308.613,0c0.827,-11.583 1.655,-19.029 1.655,-31.44Zm-122.453,-47.161l-189.47,0c9.929,-57.089 43.852,-94.321 95.976,-94.321c52.953,-0 86.048,38.059 93.494,94.321Z" style="fill:#fff;fill-rule:nonzero;"/></g><g><path d="M2036.65,1280.36l0,-217.663l-30.086,-0l0,93.021l-111.134,-0l0,-93.021l-30.086,-0l0,217.663l30.086,-0l0,-96.705l111.134,-0l0,96.705l30.086,-0Z" style="fill:#fff;fill-rule:nonzero;"/><path d="M2293.3,1280.36l32.542,-0l-86.574,-217.663l-34.691,-0l-86.574,217.663l32.235,-0l23.025,-60.786l96.398,-0l23.639,60.786Zm-72.145,-186.349l37.761,97.626l-74.908,-0l37.147,-97.626Z" style="fill:#fff;fill-rule:nonzero;"/><rect x="2407.2" y="1062.69" width="30.7" height="217.663" style="fill:#fff;fill-rule:nonzero;"/><path d="M2656.48,1280.36l34.998,-0l-51.883,-91.179c32.849,-6.14 52.804,-30.393 52.804,-61.707c0,-35.919 -25.481,-64.777 -66.619,-64.777l-81.969,-0l0,217.663l30.393,-0l0,-89.03l32.542,-0l49.734,89.03Zm-82.276,-116.046l0,-74.601l46.05,-0c24.56,-0 41.138,14.736 41.138,37.761c0,22.411 -16.578,36.84 -41.138,36.84l-46.05,-0Z" style="fill:#fff;fill-rule:nonzero;"/><path d="M2911.91,1062.69l0,217.663l76.136,-0c39.91,-0 67.233,-24.867 67.233,-59.251c0,-24.253 -14.429,-46.357 -39.296,-52.497c19.034,-7.061 32.542,-23.639 32.542,-46.971c0,-34.384 -24.253,-58.944 -65.698,-58.944l-70.917,-0Zm30.086,95.17l0,-68.768l36.226,-0c24.867,-0 39.91,13.508 39.91,34.077c0,20.262 -14.429,34.691 -38.682,34.691l-37.454,-0Zm0,96.091l0,-70.303l42.98,-0c26.402,-0 39.603,14.736 39.603,35.612c0,21.183 -16.578,34.691 -40.831,34.691l-41.752,-0Z" style="fill:#fff;fill-rule:nonzero;"/><path d="M3198.03,1187.34l0,93.021l30.086,-0l0,-93.021l76.75,-124.642l-34.384,-0l-56.488,97.012l-56.488,-97.012l-36.226,-0l76.75,124.642Z" style="fill:#fff;fill-rule:nonzero;"/><path d="M3513.62,1062.69l0,217.663l76.136,-0c39.91,-0 67.233,-24.867 67.233,-59.251c0,-24.253 -14.429,-46.357 -39.296,-52.497c19.034,-7.061 32.542,-23.639 32.542,-46.971c0,-34.384 -24.253,-58.944 -65.698,-58.944l-70.917,-0Zm30.086,95.17l0,-68.768l36.226,-0c24.867,-0 39.91,13.508 39.91,34.077c0,20.262 -14.429,34.691 -38.682,34.691l-37.454,-0Zm0,96.091l0,-70.303l42.98,-0c26.402,-0 39.603,14.736 39.603,35.612c0,21.183 -16.578,34.691 -40.831,34.691l-41.752,-0Z" style="fill:#fff;fill-rule:nonzero;"/><path d="M3861.76,1280.36l34.998,-0l-51.883,-91.179c32.849,-6.14 52.804,-30.393 52.804,-61.707c0,-35.919 -25.481,-64.777 -66.619,-64.777l-81.969,-0l0,217.663l30.393,-0l0,-89.03l32.542,-0l49.734,89.03Zm-82.276,-116.046l0,-74.601l46.05,-0c24.56,-0 41.138,14.736 41.138,37.761c0,22.411 -16.578,36.84 -41.138,36.84l-46.05,-0Z" style="fill:#fff;fill-rule:nonzero;"/><path d="M4038.9,1187.34l0,93.021l30.086,-0l0,-93.021l76.75,-124.642l-34.384,-0l-56.488,97.012l-56.488,-97.012l-36.226,-0l76.75,124.642Z" style="fill:#fff;fill-rule:nonzero;"/><path d="M4357.88,1280.36l32.542,-0l-86.574,-217.663l-34.691,-0l-86.574,217.663l32.235,-0l23.025,-60.786l96.398,-0l23.639,60.786Zm-72.145,-186.349l37.761,97.626l-74.908,-0l37.147,-97.626Z" style="fill:#fff;fill-rule:nonzero;"/><path d="M4650.75,1280.36l0,-217.663l-30.086,-0l0,167.008l-108.678,-167.008l-40.217,-0l0,217.663l30.086,-0l0,-177.446l117.581,177.446l31.314,-0Z" style="fill:#fff;fill-rule:nonzero;"/></g><g><path d="M4001.23,886.287l-0,-579.618l-45.806,0l-0,248.406l-394.636,0l0,-248.406l-45.806,0l0,579.618l45.806,0l0,-288.929l394.636,-0l-0,288.929l45.806,0Z" style="fill:#fff;fill-rule:nonzero;"/><path d="M4446.07,886.287l0,-280.121c0,-116.276 -72.232,-176.176 -187.628,-176.176c-61.661,-0 -110.11,15.856 -159.439,38.759l15.855,37.878c41.402,-21.142 86.327,-36.117 140.942,-36.117c92.492,0 147.988,46.687 147.988,137.418l-0,19.38c-43.163,-11.452 -86.327,-19.38 -148.869,-19.38c-116.277,0 -196.437,52.853 -196.437,146.227l-0,1.761c-0,93.374 89.85,140.942 173.534,140.942c85.445,-0 140.941,-42.283 171.772,-85.446l-0,74.875l42.282,0Zm-41.401,-168.249c-0,81.923 -78.399,138.299 -170.011,138.299c-68.708,0 -130.37,-37.878 -130.37,-103.063l-0,-1.762c-0,-62.543 52.853,-104.825 147.988,-104.825c64.305,-0 114.515,10.571 152.393,20.26l-0,51.091Z" style="fill:#fff;fill-rule:nonzero;"/><path d="M4576.44,361.88l-0,-56.02l-53.734,0l0,56.02l53.734,-0Zm-5.285,524.407l-0,-449.25l-43.164,-0l0,449.25l43.164,0Z" style="fill:#fff;fill-rule:nonzero;"/><path d="M4904.13,477.558l0,-47.568c-88.969,-3.524 -163.844,54.615 -199.079,134.775l-0,-127.728l-43.163,-0l-0,449.25l43.163,0l-0,-184.104c-0,-146.227 90.731,-224.625 194.675,-224.625l4.404,-0Z" style="fill:#fff;fill-rule:nonzero;"/></g></g><g><path d="M810.682,80.482c476.779,0 545.882,139.92 545.882,253.279c-0,86.543 105.96,726.741 105.96,726.741l75.413,-0.093c0,-0 3.27,-8.697 0,-0c-8.831,23.491 12.023,-24.301 0,-0c-39.117,79.067 -106.529,155.279 -199.024,215.816c-180.778,118.316 -390.064,202.059 -606.117,202.059c-197.496,-0 -306.687,-21.222 -403.34,-82.267c-34.329,-21.682 -51.089,-75.057 -51.089,-115.659c0,-109.655 77.055,-123.103 0.413,-201.526c-52.466,-53.684 -117.223,-62.301 -147.984,-94.718c-26.153,-27.562 -36.405,-56.819 -36.405,-118.483c-0,-15.586 -3.651,-393.905 -3.651,-533.552c0,-86.55 243.162,-251.597 719.942,-251.597Z" style="fill:#ede3d9;"/><path d="M730.27,10.628c75.428,0 -75.428,0 0,0c343.334,0 728.353,89.7 728.353,323.261c0,163.878 3.972,726.159 3.972,726.159c0,-0 6.035,-23.483 0,-0c-30.58,119 -285.121,228.418 -536.078,269.833c-48.127,7.942 -93.04,16.385 -193.544,16.385c-118.44,-0 -225.947,-19.623 -270.083,-43.641c-10.892,-5.927 -27.849,-15.207 -27.849,-27.608c0,-65.155 -0.077,-435.379 -0.077,-546.295c-0,-110.916 4.549,-132.337 44.011,-171.799c25.213,-25.214 253.511,-251.074 253.511,-251.074c-0,0 -413.254,-2.568 -518.009,-2.568c-87.981,-0 -112.414,20.029 -112.414,143.617c0,48.42 0.968,336.918 -0.547,429.637c-0.106,6.454 -2.394,15.167 -8.439,17.43c-8.268,3.095 -69.14,1.14 -69.14,1.14l-0,-594.819c-0,-201.243 229.554,-289.658 706.333,-289.658Z" style="fill:#dacaba;"/></g></svg>